<?xml version="1.0" encoding="UTF-8" standalone="no"?>
<svg xmlns="http://www.w3.org/2000/svg" version="1.1"
   xmlns:xlink="http://www.w3.org/1999/xlink"
   xmlns:svgjs="http://svgjs.dev/svgjs" viewBox="0 0 7.995849856610395 8.438005996919443">
   <g transform="matrix(1,0,0,1,0.68444653475051,6.673559462168933)">
      <g>
         <path d=" M 0.909 0.014999999999999902 Q 0.9450000000000001 0.014999999999999902 0.9675 0.038999999999999924 Q 0.99 0.06299999999999994 0.99 0.09899999999999998 L 0.99 0.9734999999999999 Q 0.99 1.0125 0.96375 1.0387499999999998 Q 0.9375 1.065 0.8985 1.065 Q 0.879 1.065 0.85875 1.05825 Q 0.8385 1.0514999999999999 0.8280000000000001 1.0394999999999999 L 0.23850000000000002 0.2909999999999999 L 0.2775 0.2669999999999999 L 0.2775 0.981 Q 0.2775 1.017 0.25425000000000003 1.041 Q 0.231 1.065 0.1935 1.065 Q 0.1575 1.065 0.135 1.041 Q 0.1125 1.017 0.1125 0.981 L 0.1125 0.10649999999999993 Q 0.1125 0.0674999999999999 0.13875 0.04125000000000001 Q 0.165 0.014999999999999902 0.20400000000000001 0.014999999999999902 Q 0.225 0.014999999999999902 0.2475 0.023249999999999993 Q 0.27 0.03149999999999986 0.2805 0.04799999999999982 L 0.852 0.7769999999999999 L 0.8265 0.7949999999999999 L 0.8265 0.09899999999999998 Q 0.8265 0.06299999999999994 0.849 0.038999999999999924 Q 0.8715 0.014999999999999902 0.909 0.014999999999999902 M 1.58547802734375 1.0799999999999998 Q 1.4579780273437501 1.0799999999999998 1.3642280273437501 1.02675 Q 1.2704780273437501 0.9734999999999999 1.22022802734375 0.8819999999999999 Q 1.1699780273437501 0.7905 1.1699780273437501 0.6749999999999999 Q 1.1699780273437501 0.5399999999999999 1.2247280273437502 0.44475 Q 1.27947802734375 0.3494999999999999 1.36797802734375 0.2984999999999999 Q 1.45647802734375 0.24749999999999994 1.55547802734375 0.24749999999999994 Q 1.63197802734375 0.24749999999999994 1.70022802734375 0.2789999999999999 Q 1.7684780273437501 0.3104999999999999 1.8209780273437501 0.36524999999999996 Q 1.8734780273437501 0.41999999999999993 1.9042280273437502 0.4919999999999999 Q 1.93497802734375 0.564 1.93497802734375 0.645 Q 1.9334780273437502 0.6809999999999999 1.9064780273437503 0.7035 Q 1.8794780273437501 0.726 1.84347802734375 0.726 L 1.2704780273437501 0.726 L 1.2254780273437502 0.576 L 1.7759780273437502 0.576 L 1.7429780273437503 0.6059999999999999 L 1.7429780273437503 0.5654999999999999 Q 1.7399780273437502 0.5219999999999999 1.71222802734375 0.48749999999999993 Q 1.6844780273437503 0.45299999999999996 1.64322802734375 0.43274999999999997 Q 1.60197802734375 0.4125 1.55547802734375 0.4125 Q 1.5104780273437501 0.4125 1.4714780273437502 0.4245 Q 1.43247802734375 0.4364999999999999 1.40397802734375 0.46499999999999997 Q 1.3754780273437501 0.49349999999999994 1.3589780273437502 0.5415 Q 1.3424780273437502 0.5894999999999999 1.3424780273437502 0.6629999999999999 Q 1.3424780273437502 0.744 1.3762280273437502 0.8002499999999999 Q 1.40997802734375 0.8564999999999999 1.4632280273437501 0.8857499999999999 Q 1.5164780273437501 0.9149999999999999 1.5764780273437502 0.9149999999999999 Q 1.63197802734375 0.9149999999999999 1.66497802734375 0.9059999999999999 Q 1.6979780273437501 0.8969999999999999 1.7182280273437502 0.88425 Q 1.7384780273437501 0.8714999999999999 1.7549780273437503 0.8624999999999999 Q 1.78197802734375 0.849 1.80597802734375 0.849 Q 1.8389780273437502 0.849 1.86072802734375 0.8714999999999999 Q 1.8824780273437502 0.8939999999999999 1.8824780273437502 0.9239999999999999 Q 1.8824780273437502 0.9644999999999999 1.84047802734375 0.9974999999999999 Q 1.8014780273437503 1.0305 1.7309780273437503 1.05525 Q 1.6604780273437503 1.0799999999999998 1.58547802734375 1.0799999999999998 M 2.116503662109375 0.26249999999999996 Q 2.1600036621093754 0.26249999999999996 2.1900036621093752 0.29999999999999993 L 2.691003662109375 0.9224999999999999 Q 2.7105036621093754 0.9464999999999999 2.7105036621093754 0.9764999999999999 Q 2.7105036621093754 1.014 2.6820036621093752 1.041 Q 2.653503662109375 1.0679999999999998 2.6190036621093755 1.0679999999999998 Q 2.575503662109375 1.0679999999999998 2.5455036621093754 1.029 L 2.044503662109375 0.4065 Q 2.025003662109375 0.38249999999999995 2.025003662109375 0.3524999999999999 Q 2.025003662109375 0.3134999999999999 2.0527536621093754 0.2879999999999999 Q 2.080503662109375 0.26249999999999996 2.116503662109375 0.26249999999999996 M 2.118003662109375 1.0665 Q 2.0880036621093754 1.0665 2.058753662109375 1.04325 Q 2.0295036621093754 1.02 2.0295036621093754 0.987 Q 2.0295036621093754 0.957 2.0520036621093753 0.9299999999999999 L 2.281503662109375 0.6495 L 2.371503662109375 0.7994999999999999 L 2.1900036621093752 1.029 Q 2.161503662109375 1.0665 2.118003662109375 1.0665 M 2.6175036621093755 0.26249999999999996 Q 2.653503662109375 0.26249999999999996 2.678253662109375 0.2872499999999999 Q 2.703003662109375 0.31199999999999994 2.703003662109375 0.3434999999999999 Q 2.703003662109375 0.35849999999999993 2.6985036621093754 0.37349999999999994 Q 2.6940036621093753 0.38849999999999996 2.6820036621093752 0.4019999999999999 L 2.455503662109375 0.6779999999999999 L 2.361003662109375 0.5475 L 2.5455036621093754 0.30299999999999994 Q 2.575503662109375 0.26249999999999996 2.6175036621093755 0.26249999999999996 M 2.9294846191406254 0.27749999999999997 L 3.2849846191406256 0.27749999999999997 Q 3.320984619140625 0.27749999999999997 3.344984619140625 0.3014999999999999 Q 3.368984619140625 0.3254999999999999 3.368984619140625 0.36149999999999993 Q 3.368984619140625 0.3959999999999999 3.344984619140625 0.4192499999999999 Q 3.320984619140625 0.4424999999999999 3.2849846191406256 0.4424999999999999 L 2.9294846191406254 0.4424999999999999 Q 2.8934846191406254 0.4424999999999999 2.8694846191406254 0.4185 Q 2.8454846191406253 0.39449999999999996 2.8454846191406253 0.35849999999999993 Q 2.8454846191406253 0.32399999999999995 2.8694846191406254 0.30074999999999996 Q 2.8934846191406254 0.27749999999999997 2.9294846191406254 0.27749999999999997 M 3.0899846191406253 0.08999999999999997 Q 3.1289846191406254 0.08999999999999997 3.1537346191406255 0.11624999999999996 Q 3.1784846191406255 0.14249999999999996 3.1784846191406255 0.18149999999999988 L 3.1784846191406255 0.849 Q 3.1784846191406255 0.8699999999999999 3.1867346191406254 0.8835 Q 3.1949846191406253 0.8969999999999999 3.2092346191406254 0.9029999999999999 Q 3.2234846191406255 0.9089999999999999 3.239984619140625 0.9089999999999999 Q 3.2579846191406254 0.9089999999999999 3.2729846191406256 0.90225 Q 3.2879846191406252 0.8955 3.3074846191406255 0.8955 Q 3.3284846191406254 0.8955 3.345734619140625 0.9149999999999999 Q 3.3629846191406254 0.9344999999999999 3.3629846191406254 0.969 Q 3.3629846191406254 1.011 3.3172346191406255 1.038 Q 3.2714846191406255 1.065 3.2189846191406253 1.065 Q 3.1874846191406254 1.065 3.1492346191406253 1.05975 Q 3.110984619140625 1.0545 3.0772346191406252 1.03425 Q 3.0434846191406253 1.014 3.0209846191406253 0.972 Q 2.9984846191406254 0.9299999999999999 2.9984846191406254 0.8564999999999999 L 2.9984846191406254 0.18149999999999988 Q 2.9984846191406254 0.14249999999999996 3.0247346191406255 0.11624999999999996 Q 3.0509846191406256 0.08999999999999997 3.0899846191406253 0.08999999999999997 M 4.5299794921875005 0.5399999999999999 Q 4.5299794921875005 0.6524999999999999 4.492479492187501 0.75 Q 4.4549794921875 0.8474999999999999 4.3867294921875 0.92175 Q 4.3184794921875005 0.996 4.2247294921875005 1.038 Q 4.1309794921875005 1.0799999999999998 4.019979492187501 1.0799999999999998 Q 3.9089794921875005 1.0799999999999998 3.8159794921875005 1.038 Q 3.7229794921875006 0.996 3.6547294921875007 0.92175 Q 3.5864794921875003 0.8474999999999999 3.5489794921875006 0.75 Q 3.5114794921875006 0.6524999999999999 3.5114794921875006 0.5399999999999999 Q 3.5114794921875006 0.4274999999999999 3.5489794921875006 0.32999999999999996 Q 3.5864794921875003 0.23249999999999993 3.6547294921875007 0.1582499999999999 Q 3.7229794921875006 0.08399999999999996 3.8159794921875005 0.041999999999999815 Q 3.9089794921875005 0 4.019979492187501 0 Q 4.1309794921875005 0 4.2247294921875005 0.041999999999999815 Q 4.3184794921875005 0.08399999999999996 4.3867294921875 0.1582499999999999 Q 4.4549794921875 0.23249999999999993 4.492479492187501 0.32999999999999996 Q 4.5299794921875005 0.4274999999999999 4.5299794921875005 0.5399999999999999 M 4.3349794921875 0.5399999999999999 Q 4.3349794921875 0.4394999999999999 4.2944794921875005 0.3577499999999999 Q 4.253979492187501 0.2759999999999999 4.183479492187501 0.22799999999999998 Q 4.112979492187501 0.17999999999999994 4.019979492187501 0.17999999999999994 Q 3.9269794921875008 0.17999999999999994 3.8564794921875007 0.22799999999999998 Q 3.7859794921875007 0.2759999999999999 3.7462294921875006 0.357 Q 3.7064794921875004 0.43799999999999994 3.7064794921875004 0.5399999999999999 Q 3.7064794921875004 0.6405 3.7462294921875006 0.72225 Q 3.7859794921875007 0.8039999999999999 3.8564794921875007 0.852 Q 3.9269794921875008 0.8999999999999999 4.019979492187501 0.8999999999999999 Q 4.112979492187501 0.8999999999999999 4.183479492187501 0.852 Q 4.253979492187501 0.8039999999999999 4.2944794921875005 0.72225 Q 4.3349794921875 0.6405 4.3349794921875 0.5399999999999999 M 5.150937744140626 0.014999999999999902 Q 5.228937744140626 0.014999999999999902 5.297187744140626 0.05999999999999983 Q 5.3654377441406265 0.10499999999999998 5.407437744140626 0.18149999999999988 Q 5.449437744140626 0.2579999999999999 5.449437744140626 0.3524999999999999 Q 5.449437744140626 0.4454999999999999 5.407437744140626 0.5219999999999999 Q 5.3654377441406265 0.5984999999999999 5.297187744140626 0.64425 Q 5.228937744140626 0.69 5.150937744140626 0.69 L 4.874937744140626 0.69 L 4.889937744140626 0.6629999999999999 L 4.889937744140626 0.9734999999999999 Q 4.889937744140626 1.0125 4.865937744140626 1.0387499999999998 Q 4.841937744140626 1.065 4.8029377441406265 1.065 Q 4.765437744140626 1.065 4.741437744140626 1.0387499999999998 Q 4.717437744140626 1.0125 4.717437744140626 0.9734999999999999 L 4.717437744140626 0.10649999999999993 Q 4.717437744140626 0.0674999999999999 4.743687744140626 0.04125000000000001 Q 4.769937744140626 0.014999999999999902 4.808937744140626 0.014999999999999902 L 5.150937744140626 0.014999999999999902 M 5.150937744140626 0.5189999999999999 Q 5.1794377441406265 0.5189999999999999 5.206437744140626 0.4949999999999999 Q 5.233437744140626 0.471 5.251437744140626 0.43274999999999997 Q 5.269437744140626 0.39449999999999996 5.269437744140626 0.3524999999999999 Q 5.269437744140626 0.30899999999999994 5.251437744140626 0.27149999999999996 Q 5.233437744140626 0.23399999999999987 5.206437744140626 0.21074999999999988 Q 5.1794377441406265 0.1874999999999999 5.150937744140626 0.1874999999999999 L 4.871937744140626 0.1874999999999999 L 4.889937744140626 0.16049999999999998 L 4.889937744140626 0.5429999999999999 L 4.8734377441406265 0.5189999999999999 L 5.150937744140626 0.5189999999999999 M 6.4334787597656256 0.014999999999999902 Q 6.469478759765626 0.014999999999999902 6.491978759765626 0.038999999999999924 Q 6.514478759765626 0.06299999999999994 6.514478759765626 0.09899999999999998 L 6.514478759765626 0.9734999999999999 Q 6.514478759765626 1.0125 6.488228759765626 1.0387499999999998 Q 6.461978759765626 1.065 6.422978759765626 1.065 Q 6.403478759765626 1.065 6.383228759765625 1.05825 Q 6.3629787597656255 1.0514999999999999 6.352478759765626 1.0394999999999999 L 5.762978759765626 0.2909999999999999 L 5.801978759765626 0.2669999999999999 L 5.801978759765626 0.981 Q 5.801978759765626 1.017 5.778728759765626 1.041 Q 5.755478759765626 1.065 5.717978759765626 1.065 Q 5.6819787597656255 1.065 5.6594787597656255 1.041 Q 5.636978759765626 1.017 5.636978759765626 0.981 L 5.636978759765626 0.10649999999999993 Q 5.636978759765626 0.0674999999999999 5.663228759765626 0.04125000000000001 Q 5.689478759765626 0.014999999999999902 5.7284787597656255 0.014999999999999902 Q 5.749478759765625 0.014999999999999902 5.771978759765625 0.023249999999999993 Q 5.794478759765626 0.03149999999999986 5.804978759765626 0.04799999999999982 L 6.376478759765626 0.7769999999999999 L 6.350978759765626 0.7949999999999999 L 6.350978759765626 0.09899999999999998 Q 6.350978759765626 0.06299999999999994 6.373478759765626 0.038999999999999924 Q 6.395978759765626 0.014999999999999902 6.4334787597656256 0.014999999999999902" fill="#ffffff" fill-rule="nonzero"></path>
      </g>
      <g></g>
      <g clip-path="url(#SvgjsClipPath1001)">
         <g clip-path="url(#SvgjsClipPath1000bf02fa7e-79cc-46dd-9e38-aaa87603ecc7)">
            <path d=" M 3.4645031502397035 -0.7510245585636284 C 4.870585817457218 -0.7510245585636284 6.0104310359717905 -1.8988471440473131 6.0104310359717905 -3.315116736710994 C 6.0104310359717905 -4.731386329374676 4.870585817457218 -5.879237610422997 3.4645031502397035 -5.879237610422997 C 2.0584204830221897 -5.879237610422997 0.9185752645076168 -4.73124285155149 0.9185752645076168 -3.315116736710994 C 0.9185752645076168 -1.8989906218704982 2.058449178586827 -0.7510245585636284 3.4645031502397035 -0.7510245585636284 Z M 3.4645031502397035 -0.6641056932778762 C 4.918249150319427 -0.6641056932778762 6.096718598835527 -1.8510116377972805 6.096718598835527 -3.315116736710994 C 6.096718598835527 -4.779221835624708 4.918249150319427 -5.966156475708749 3.4645031502397035 -5.966156475708749 C 2.01075715015998 -5.966156475708749 0.8322877016438808 -4.779250531189345 0.8322877016438808 -3.315116736710994 C 0.8322877016438808 -1.8509829422326431 2.0106997590307056 -0.6641056932778762 3.4645031502397035 -0.6641056932778762 Z" fill="#64c6c4" transform="matrix(1,0,0,1,0,0)" fill-rule="evenodd"></path>
         </g>
         <g clip-path="url(#SvgjsClipPath1000bf02fa7e-79cc-46dd-9e38-aaa87603ecc7)">
            <path d=" M 3.076137378441299 -0.6641056932778762 C 4.482220045658812 -0.6641056932778762 5.6220652641733855 -1.8119282787615614 5.6220652641733855 -3.2281978714252424 C 5.6220652641733855 -4.644467464088923 4.482220045658813 -5.792318745137245 3.076137378441299 -5.792318745137245 C 1.6700547112237847 -5.792318745137245 0.5302381882738492 -4.644323986265738 0.5302381882738492 -3.2281978714252424 C 0.5302381882738492 -1.8120717565847464 1.670083406788422 -0.6641056932778762 3.076137378441299 -0.6641056932778762 Z M 3.076137378441299 -0.5771868279921248 C 4.5298833785210215 -0.5771868279921248 5.7083815226017585 -1.7640927725115287 5.7083815226017585 -3.2281978714252424 C 5.7083815226017585 -4.6923029703389565 4.5298833785210215 -5.879237610422997 3.076137378441299 -5.879237610422997 C 1.6223913783615755 -5.879237610422997 0.4439219298454762 -4.692331665903593 0.4439219298454762 -3.2281978714252424 C 0.4439219298454762 -1.764064076946891 1.6224200739262122 -0.5771294368628497 3.076137378441299 -0.5771294368628497 Z" fill="#64c6c4" transform="matrix(1,0,0,1,0,0)" fill-rule="evenodd"></path>
         </g>
         <g clip-path="url(#SvgjsClipPath1000bf02fa7e-79cc-46dd-9e38-aaa87603ecc7)">
            <path d=" M 3.550819408668077 -0.3598753169954261 C 4.956902075885591 -0.3598753169954261 6.096718598835527 -1.5078700758669328 6.096718598835527 -2.9239961907074283 C 6.096718598835527 -4.340122305547924 4.956873380320953 -5.488088368854794 3.550819408668077 -5.488088368854794 C 2.1447654370151996 -5.488088368854794 1.0048915229359898 -4.340093609983287 1.0048915229359898 -2.9239961907074288 C 1.0048915229359898 -1.5078987714315701 2.1447367414505627 -0.3598753169954261 3.550819408668077 -0.3598753169954261 Z M 3.550819408668077 -0.27295645170967386 C 5.004536713183162 -0.27295645170967386 6.183034857263899 -1.4598623962290778 6.183034857263899 -2.9239961907074288 C 6.183034857263899 -4.38812998518578 5.004536713183163 -5.575035929705184 3.550819408668077 -5.575035929705184 C 2.09710210415299 -5.575035929705184 0.9185752645076167 -4.388101289621143 0.9185752645076167 -2.9239961907074288 C 0.9185752645076167 -1.4598910917937151 2.097073408588353 -0.27295645170967386 3.550819408668077 -0.27295645170967386 Z" fill="#64c6c4" transform="matrix(1,0,0,1,0,0)" fill-rule="evenodd"></path>
         </g>
         <path d=" M 2.7482482424658343 -2.04473810837393 L 2.995620229619985 -2.04473810837393 L 2.995620229619985 -1.7620272659120433 L 2.175758786480514 -1.7620272659120433 L 2.175758786480514 -2.04473810837393 L 2.4231307736346652 -2.04473810837393 L 2.4231307736346652 -4.1297305715303425 L 2.175758786480514 -4.1297305715303425 L 2.175758786480514 -4.412441413992229 L 2.9108069768814193 -4.412441413992229 L 3.942701551867305 -2.161356330889458 L 3.942701551867305 -4.1297305715303425 L 3.695329564713154 -4.1297305715303425 L 3.695329564713154 -4.412441413992229 L 4.515191007852625 -4.412441413992229 L 4.515191007852625 -4.1297305715303425 L 4.267819020698474 -4.1297305715303425 L 4.267819020698474 -1.7620272659120433 L 3.78014281745172 -1.7620272659120433 L 2.7482482424658343 -4.009578463484041 L 2.7482482424658343 -2.04473810837393" fill="#64c6c4" transform="matrix(1,0,0,1,0,0)" fill-rule="nonzero"></path>
      </g>
   </g>
   <defs>
      <clipPath id="SvgjsClipPath1001">
         <path d=" M 0.4439219298454762 -5.9891129274184225 h 5.7391129274184225 v 5.7391129274184225 h -5.7391129274184225 Z"></path>
      </clipPath>
      <clipPath id="SvgjsClipPath1000bf02fa7e-79cc-46dd-9e38-aaa87603ecc7">
         <path d=" M 0.4439219298454762 -5.966156475708749 L 6.183034857263899 -5.966156475708749 L 6.183034857263899 -0.27295645170967386 L 0.4439219298454762 -0.27295645170967386 Z"></path>
      </clipPath>
   </defs>
</svg>
